<svg width="24" height="24" viewBox="0 0 24 24" fill="none" xmlns="http://www.w3.org/2000/svg">
<g clip-path="url(#clip0_17058_14278)">
<path d="M11.4662 6.69393L13.3225 4.83768C14.1084 4.12136 15.1401 3.73541 16.2032 3.76002C17.2663 3.78463 18.279 4.21792 19.0309 4.96984C19.7829 5.72177 20.2161 6.7345 20.2408 7.7976C20.2654 8.86069 19.8794 9.89239 19.1631 10.6783L16.51 13.3221C16.1276 13.7059 15.6732 14.0104 15.1729 14.2182C14.6725 14.426 14.1361 14.5329 13.5943 14.5329C13.0526 14.5329 12.5161 14.426 12.0158 14.2182C11.5155 14.0104 11.0611 13.7059 10.6787 13.3221" stroke="black" stroke-width="2" stroke-linecap="round" stroke-linejoin="round"/>
<path d="M12.5344 17.305L10.6782 19.1612C9.89228 19.8775 8.86057 20.2635 7.79748 20.2389C6.73438 20.2143 5.72164 19.781 4.96972 19.029C4.2178 18.2771 3.78451 17.2644 3.7599 16.2013C3.73529 15.1382 4.12124 14.1065 4.83756 13.3206L7.49069 10.6768C7.87306 10.293 8.32744 9.98849 8.82778 9.7807C9.32811 9.57291 9.86455 9.46594 10.4063 9.46594C10.9481 9.46594 11.4845 9.57291 11.9849 9.7807C12.4852 9.98849 12.9396 10.293 13.3219 10.6768" stroke="black" stroke-width="2" stroke-linecap="round" stroke-linejoin="round"/>
</g>
<defs>
<clipPath id="clip0_17058_14278">
<rect width="24" height="24" fill="white"/>
</clipPath>
</defs>
</svg>
