<svg width="24" height="24" viewBox="0 0 24 24" fill="none" xmlns="http://www.w3.org/2000/svg">
<path d="M8.22214 8.76282L10.6097 20.1113C10.6365 20.233 10.6321 20.3595 10.597 20.4791C10.5619 20.5987 10.4971 20.7075 10.4088 20.7954L9.5405 21.6774C9.45646 21.7633 9.35304 21.8277 9.23894 21.8652C9.12483 21.9028 9.00338 21.9123 8.88479 21.8932C8.76621 21.874 8.65397 21.8266 8.55752 21.755C8.46106 21.6834 8.38322 21.5897 8.33053 21.4817L6.09658 16.8742" stroke="black" stroke-width="2" stroke-linecap="round" stroke-linejoin="round"/>
<path d="M6.09685 16.8736C5.1236 17.0784 4.10886 16.8881 3.27588 16.3447C2.4429 15.8013 1.8599 14.9492 1.65514 13.976C1.45038 13.0027 1.64063 11.988 2.18403 11.155C2.72744 10.322 3.5795 9.73904 4.55275 9.53428L8.22241 8.76223C8.22241 8.76223 13.2223 7.71031 17.1823 2.67146C17.2706 2.56049 17.3885 2.47682 17.5225 2.43018C17.6564 2.38354 17.8008 2.37583 17.939 2.40794C18.0771 2.44006 18.2033 2.51068 18.3029 2.61163C18.4026 2.71257 18.4715 2.83969 18.5018 2.97824L21.5051 17.2532C21.5332 17.3922 21.5213 17.5364 21.4708 17.6689C21.4203 17.8014 21.3332 17.9169 21.2198 18.002C21.1063 18.087 20.971 18.1382 20.8296 18.1495C20.6882 18.1607 20.5466 18.1317 20.421 18.0657C14.7664 15.0496 9.76652 16.1016 9.76652 16.1016L6.09685 16.8736Z" stroke="black" stroke-width="2" stroke-linecap="round" stroke-linejoin="round"/>
</svg>
