<svg width="32" height="32" viewBox="0 0 32 32" fill="none" xmlns="http://www.w3.org/2000/svg">
<g clip-path="url(#clip0_17058_14576)">
<path d="M5 8.00012V24.0001C5 24.5306 5 25.5001 5.00128 26.0001C5.49831 26.0001 6.46957 26.0001 7 26.0001H27C27.2652 26.0001 28 26.0001 28 26.0001C28 25.5001 28 25.2653 28 25.0001V11.0001C28 10.7349 28 10.0001 28 10.0001C28 10.0001 27.2652 10.0001 27 10.0001H7C5.91067 10.0001 5 9.08946 5 8.00012ZM5 8.00012C5 6.91079 5.91067 6.00012 7 6.00012H24" stroke="black" stroke-width="2" stroke-linecap="round" stroke-linejoin="round"/>
<path d="M22.5 19.5001C23.3284 19.5001 24 18.8285 24 18.0001C24 17.1717 23.3284 16.5001 22.5 16.5001C21.6716 16.5001 21 17.1717 21 18.0001C21 18.8285 21.6716 19.5001 22.5 19.5001Z" fill="black"/>
</g>
<defs>
<clipPath id="clip0_17058_14576">
<rect width="32" height="32" fill="white"/>
</clipPath>
</defs>
</svg>
